<svg width="187" height="74" viewBox="0 0 187 74" fill="none" xmlns="http://www.w3.org/2000/svg">
<mask id="path-1-inside-1_74_215" fill="white">
<path d="M187 45.0541C187 69.9743 67.6142 74 40 74C12.3858 74 0 64.6275 0 39.7073C0 14.7872 12.3858 0 40 0C67.6142 0 187 20.134 187 45.0541Z"/>
</mask>
<path d="M187 45.0541C187 69.9743 67.6142 74 40 74C12.3858 74 0 64.6275 0 39.7073C0 14.7872 12.3858 0 40 0C67.6142 0 187 20.134 187 45.0541Z" fill="#F1BF88"/>
<path d="M186 45.0541C186 47.7219 184.412 50.2498 181.215 52.6534C178.022 55.0544 173.367 57.2149 167.598 59.1416C156.07 62.9913 140.363 65.8213 123.733 67.8797C90.488 71.9945 53.7817 73 40 73V75C53.8326 75 90.6262 73.9927 123.978 69.8646C140.646 67.8016 156.511 64.9526 168.231 61.0386C174.086 59.0836 178.974 56.8411 182.417 54.252C185.857 51.6656 188 48.6164 188 45.0541H186ZM40 73C26.2636 73 16.5588 70.66 10.2849 65.4306C4.05602 60.2386 1 52.0147 1 39.7073H-1C-1 52.3201 2.13686 61.2426 9.00439 66.9669C15.827 72.6537 26.1221 75 40 75V73ZM1 39.7073C1 27.3997 4.05841 17.7627 10.3656 11.2016C16.6658 4.64783 26.3651 1 40 1V-1C26.0206 -1 15.72 2.74575 8.92374 9.81558C2.13447 16.8781 -1 27.0948 -1 39.7073H1ZM40 1C53.6918 1 90.3534 6.01314 123.618 14.1533C140.244 18.222 155.957 23.0569 167.494 28.4084C173.266 31.0861 177.939 33.8688 181.154 36.7124C184.383 39.5692 186 42.3589 186 45.0541H188C188 41.5194 185.886 38.2285 182.479 35.2144C179.057 32.187 174.187 29.3083 168.335 26.5941C156.624 21.1617 140.765 16.2905 124.093 12.2107C90.7609 4.05385 53.9224 -1 40 -1V1Z" fill="#F1BF88" mask="url(#path-1-inside-1_74_215)"/>
<path d="M29.039 50L25.415 44.84C24.967 44.872 24.615 44.888 24.359 44.888H20.207V50H17.807V33.2H24.359C26.535 33.2 28.247 33.72 29.495 34.76C30.743 35.8 31.367 37.232 31.367 39.056C31.367 40.352 31.047 41.456 30.407 42.368C29.767 43.28 28.855 43.944 27.671 44.36L31.655 50H29.039ZM24.287 42.848C25.807 42.848 26.967 42.52 27.767 41.864C28.567 41.208 28.967 40.272 28.967 39.056C28.967 37.84 28.567 36.912 27.767 36.272C26.967 35.616 25.807 35.288 24.287 35.288H20.207V42.848H24.287ZM42.4685 50.192C40.7725 50.192 39.2445 49.824 37.8845 49.088C36.5245 48.336 35.4525 47.304 34.6685 45.992C33.9005 44.68 33.5165 43.216 33.5165 41.6C33.5165 39.984 33.9005 38.52 34.6685 37.208C35.4525 35.896 36.5245 34.872 37.8845 34.136C39.2445 33.384 40.7725 33.008 42.4685 33.008C44.1485 33.008 45.6685 33.384 47.0285 34.136C48.3885 34.872 49.4525 35.896 50.2205 37.208C50.9885 38.504 51.3725 39.968 51.3725 41.6C51.3725 43.232 50.9885 44.704 50.2205 46.016C49.4525 47.312 48.3885 48.336 47.0285 49.088C45.6685 49.824 44.1485 50.192 42.4685 50.192ZM42.4685 48.056C43.7005 48.056 44.8045 47.776 45.7805 47.216C46.7725 46.656 47.5485 45.888 48.1085 44.912C48.6845 43.92 48.9725 42.816 48.9725 41.6C48.9725 40.384 48.6845 39.288 48.1085 38.312C47.5485 37.32 46.7725 36.544 45.7805 35.984C44.8045 35.424 43.7005 35.144 42.4685 35.144C41.2365 35.144 40.1165 35.424 39.1085 35.984C38.1165 36.544 37.3325 37.32 36.7565 38.312C36.1965 39.288 35.9165 40.384 35.9165 41.6C35.9165 42.816 36.1965 43.92 36.7565 44.912C37.3325 45.888 38.1165 46.656 39.1085 47.216C40.1165 47.776 41.2365 48.056 42.4685 48.056ZM65.1504 45.8H56.2224L54.3744 50H51.9024L59.5104 33.2H61.8864L69.5184 50H66.9984L65.1504 45.8ZM64.3104 43.88L60.6864 35.648L57.0624 43.88H64.3104ZM71.6645 33.2H78.7445C80.5205 33.2 82.0965 33.552 83.4725 34.256C84.8485 34.96 85.9125 35.952 86.6645 37.232C87.4325 38.496 87.8165 39.952 87.8165 41.6C87.8165 43.248 87.4325 44.712 86.6645 45.992C85.9125 47.256 84.8485 48.24 83.4725 48.944C82.0965 49.648 80.5205 50 78.7445 50H71.6645V33.2ZM78.6005 47.912C79.9605 47.912 81.1525 47.648 82.1765 47.12C83.2165 46.592 84.0165 45.856 84.5765 44.912C85.1365 43.952 85.4165 42.848 85.4165 41.6C85.4165 40.352 85.1365 39.256 84.5765 38.312C84.0165 37.352 83.2165 36.608 82.1765 36.08C81.1525 35.552 79.9605 35.288 78.6005 35.288H74.0645V47.912H78.6005ZM106.709 50L106.685 37.76L100.613 47.96H99.5087L93.4367 37.832V50H91.1327V33.2H93.1007L100.109 45.008L107.021 33.2H108.989L109.013 50H106.709ZM124.399 45.8H115.471L113.623 50H111.151L118.759 33.2H121.135L128.767 50H126.247L124.399 45.8ZM123.559 43.88L119.935 35.648L116.311 43.88H123.559ZM137.465 33.2C139.641 33.2 141.353 33.72 142.601 34.76C143.849 35.8 144.473 37.232 144.473 39.056C144.473 40.88 143.849 42.312 142.601 43.352C141.353 44.392 139.641 44.912 137.465 44.912H133.313V50H130.913V33.2H137.465ZM137.393 42.824C138.913 42.824 140.073 42.504 140.873 41.864C141.673 41.208 142.073 40.272 142.073 39.056C142.073 37.84 141.673 36.912 140.873 36.272C140.073 35.616 138.913 35.288 137.393 35.288H133.313V42.824H137.393Z" fill="#5B5858"/>
</svg>
